<svg width="38" height="38" viewBox="0 0 38 38" fill="none" xmlns="http://www.w3.org/2000/svg">
<path d="M14.25 24.9375C14.25 24.6226 14.3751 24.3205 14.5978 24.0978C14.8205 23.8751 15.1226 23.75 15.4375 23.75H22.5625C22.8774 23.75 23.1795 23.8751 23.4022 24.0978C23.6249 24.3205 23.75 24.6226 23.75 24.9375C23.75 25.2524 23.6249 25.5545 23.4022 25.7772C23.1795 25.9999 22.8774 26.125 22.5625 26.125H15.4375C15.1226 26.125 14.8205 25.9999 14.5978 25.7772C14.3751 25.5545 14.25 25.2524 14.25 24.9375ZM9.5 17.8125C9.5 17.4976 9.62511 17.1955 9.84781 16.9728C10.0705 16.7501 10.3726 16.625 10.6875 16.625H27.3125C27.6274 16.625 27.9295 16.7501 28.1522 16.9728C28.3749 17.1955 28.5 17.4976 28.5 17.8125C28.5 18.1274 28.3749 18.4295 28.1522 18.6522C27.9295 18.8749 27.6274 19 27.3125 19H10.6875C10.3726 19 10.0705 18.8749 9.84781 18.6522C9.62511 18.4295 9.5 18.1274 9.5 17.8125ZM4.75 10.6875C4.75 10.3726 4.87511 10.0705 5.09781 9.84781C5.32051 9.62511 5.62256 9.5 5.9375 9.5H32.0625C32.3774 9.5 32.6795 9.62511 32.9022 9.84781C33.1249 10.0705 33.25 10.3726 33.25 10.6875C33.25 11.0024 33.1249 11.3045 32.9022 11.5272C32.6795 11.7499 32.3774 11.875 32.0625 11.875H5.9375C5.62256 11.875 5.32051 11.7499 5.09781 11.5272C4.87511 11.3045 4.75 11.0024 4.75 10.6875Z" fill="#077763"/>
</svg>
