<svg width="29" height="29" viewBox="0 0 29 29" fill="none" xmlns="http://www.w3.org/2000/svg">
<g clip-path="url(#clip0_122_26)">
<path fill-rule="evenodd" clip-rule="evenodd" d="M0 0H29V28.1212H0V0ZM22.1693 23.575C20.8244 23.575 20.0644 22.8954 19.4808 21.9697L17.2659 23.2176C18.0658 24.7502 19.7007 25.9196 22.2321 25.9196C24.8204 25.9196 26.7477 24.6166 26.7477 22.2368C26.7477 20.0305 25.4403 19.0498 23.1251 18.0855L22.4436 17.8031C21.2739 17.3109 20.7676 16.9911 20.7676 16.1978C20.7676 15.5569 21.2751 15.0659 22.0726 15.0659C22.8544 15.0659 23.3583 15.3858 23.8259 16.1978L25.9478 14.8773C25.05 13.3459 23.8054 12.7612 22.0726 12.7612C19.639 12.7612 18.0815 14.2703 18.0815 16.2529C18.0815 18.403 19.3865 19.4212 21.3537 20.2332L22.0352 20.5168C23.2785 21.044 24.0193 21.3651 24.0193 22.2708C24.0193 23.0278 23.2979 23.575 22.1693 23.575V23.575ZM11.6085 23.5574C10.672 23.5574 10.2817 22.9364 9.85396 22.1982L7.63546 23.5011C8.27829 24.8205 9.54221 25.9149 11.7232 25.9149C14.1387 25.9149 15.7929 24.6693 15.7929 21.9334V12.9112H13.0681V21.8982C13.0681 23.2187 12.5026 23.5574 11.6073 23.5574H11.6085Z" fill="#077763"/>
</g>
<defs>
<clipPath id="clip0_122_26">
<rect width="29" height="28.1212" fill="white"/>
</clipPath>
</defs>
</svg>
