<svg width="133" height="36" viewBox="0 0 133 36" fill="none" xmlns="http://www.w3.org/2000/svg">
<line x1="13.1713" y1="1.93704" x2="1.1713" y2="16.937" stroke="#080135" stroke-width="3"/>
<line x1="15.3545" y1="27.8893" x2="1.00313" y2="15.1206" stroke="#080135" stroke-width="3"/>
<path d="M29.1885 15.7373C29.0889 17.1143 28.5791 18.1982 27.6592 18.9893C26.7451 19.7803 25.5381 20.1758 24.0381 20.1758C22.3975 20.1758 21.1055 19.625 20.1621 18.5234C19.2246 17.416 18.7559 15.8984 18.7559 13.9707V13.1885C18.7559 11.958 18.9727 10.874 19.4062 9.93652C19.8398 8.99902 20.458 8.28125 21.2607 7.7832C22.0693 7.2793 23.0068 7.02734 24.0732 7.02734C25.5498 7.02734 26.7393 7.42285 27.6416 8.21387C28.5439 9.00488 29.0654 10.1152 29.2061 11.5449H26.5693C26.5049 10.7188 26.2734 10.1211 25.875 9.75195C25.4824 9.37695 24.8818 9.18945 24.0732 9.18945C23.1943 9.18945 22.5352 9.50586 22.0957 10.1387C21.6621 10.7656 21.4395 11.7412 21.4277 13.0654V14.0322C21.4277 15.415 21.6357 16.4258 22.0518 17.0645C22.4736 17.7031 23.1357 18.0225 24.0381 18.0225C24.8525 18.0225 25.459 17.8379 25.8574 17.4688C26.2617 17.0938 26.4932 16.5166 26.5518 15.7373H29.1885ZM30.3574 15.1572C30.3574 14.2139 30.5391 13.373 30.9023 12.6348C31.2656 11.8965 31.7871 11.3252 32.4668 10.9209C33.1523 10.5166 33.9463 10.3145 34.8486 10.3145C36.1318 10.3145 37.1777 10.707 37.9863 11.4922C38.8008 12.2773 39.2549 13.3438 39.3486 14.6914L39.3662 15.3418C39.3662 16.8008 38.959 17.9727 38.1445 18.8574C37.3301 19.7363 36.2373 20.1758 34.8662 20.1758C33.4951 20.1758 32.3994 19.7363 31.5791 18.8574C30.7646 17.9785 30.3574 16.7832 30.3574 15.2715V15.1572ZM32.8975 15.3418C32.8975 16.2441 33.0674 16.9355 33.4072 17.416C33.7471 17.8906 34.2334 18.1279 34.8662 18.1279C35.4814 18.1279 35.9619 17.8936 36.3076 17.4248C36.6533 16.9502 36.8262 16.1943 36.8262 15.1572C36.8262 14.2725 36.6533 13.5869 36.3076 13.1006C35.9619 12.6143 35.4756 12.3711 34.8486 12.3711C34.2275 12.3711 33.7471 12.6143 33.4072 13.1006C33.0674 13.5811 32.8975 14.3281 32.8975 15.3418ZM40.5352 15.1748C40.5352 13.6924 40.8662 12.5117 41.5283 11.6328C42.1963 10.7539 43.1074 10.3145 44.2617 10.3145C45.1875 10.3145 45.9521 10.6602 46.5557 11.3516V6.5H49.1045V20H46.8105L46.6875 18.9893C46.0547 19.7803 45.2402 20.1758 44.2441 20.1758C43.125 20.1758 42.2256 19.7363 41.5459 18.8574C40.8721 17.9727 40.5352 16.7451 40.5352 15.1748ZM43.0752 15.3594C43.0752 16.25 43.2305 16.9326 43.541 17.4072C43.8516 17.8818 44.3027 18.1191 44.8945 18.1191C45.6797 18.1191 46.2334 17.7881 46.5557 17.126V13.373C46.2393 12.7109 45.6914 12.3799 44.9121 12.3799C43.6875 12.3799 43.0752 13.373 43.0752 15.3594ZM55.4502 20.1758C54.0557 20.1758 52.9189 19.748 52.04 18.8926C51.167 18.0371 50.7305 16.8975 50.7305 15.4736V15.2275C50.7305 14.2725 50.915 13.4199 51.2842 12.6699C51.6533 11.9141 52.1748 11.334 52.8486 10.9297C53.5283 10.5195 54.3018 10.3145 55.1689 10.3145C56.4697 10.3145 57.4922 10.7246 58.2363 11.5449C58.9863 12.3652 59.3613 13.5283 59.3613 15.0342V16.0713H53.3057C53.3877 16.6924 53.6338 17.1904 54.0439 17.5654C54.46 17.9404 54.9844 18.1279 55.6172 18.1279C56.5957 18.1279 57.3604 17.7734 57.9111 17.0645L59.1592 18.4619C58.7783 19.001 58.2627 19.4229 57.6123 19.7275C56.9619 20.0264 56.2412 20.1758 55.4502 20.1758ZM55.1602 12.3711C54.6562 12.3711 54.2461 12.541 53.9297 12.8809C53.6191 13.2207 53.4199 13.707 53.332 14.3398H56.8652V14.1377C56.8535 13.5752 56.7012 13.1416 56.4082 12.8369C56.1152 12.5264 55.6992 12.3711 55.1602 12.3711ZM69.3721 15.333C69.3721 16.7979 69.0381 17.9727 68.3701 18.8574C67.708 19.7363 66.8115 20.1758 65.6807 20.1758C64.7197 20.1758 63.9434 19.8418 63.3516 19.1738V23.6562H60.8115V10.4902H63.167L63.2549 11.4219C63.8701 10.6836 64.6729 10.3145 65.6631 10.3145C66.835 10.3145 67.7461 10.748 68.3965 11.6152C69.0469 12.4824 69.3721 13.6777 69.3721 15.2012V15.333ZM66.832 15.1484C66.832 14.2637 66.6738 13.5811 66.3574 13.1006C66.0469 12.6201 65.5928 12.3799 64.9951 12.3799C64.1982 12.3799 63.6504 12.6846 63.3516 13.2939V17.1875C63.6621 17.8145 64.2158 18.1279 65.0127 18.1279C66.2256 18.1279 66.832 17.1348 66.832 15.1484ZM70.5586 15.1572C70.5586 14.2139 70.7402 13.373 71.1035 12.6348C71.4668 11.8965 71.9883 11.3252 72.668 10.9209C73.3535 10.5166 74.1475 10.3145 75.0498 10.3145C76.333 10.3145 77.3789 10.707 78.1875 11.4922C79.002 12.2773 79.4561 13.3438 79.5498 14.6914L79.5674 15.3418C79.5674 16.8008 79.1602 17.9727 78.3457 18.8574C77.5312 19.7363 76.4385 20.1758 75.0674 20.1758C73.6963 20.1758 72.6006 19.7363 71.7803 18.8574C70.9658 17.9785 70.5586 16.7832 70.5586 15.2715V15.1572ZM73.0986 15.3418C73.0986 16.2441 73.2686 16.9355 73.6084 17.416C73.9482 17.8906 74.4346 18.1279 75.0674 18.1279C75.6826 18.1279 76.1631 17.8936 76.5088 17.4248C76.8545 16.9502 77.0273 16.1943 77.0273 15.1572C77.0273 14.2725 76.8545 13.5869 76.5088 13.1006C76.1631 12.6143 75.6768 12.3711 75.0498 12.3711C74.4287 12.3711 73.9482 12.6143 73.6084 13.1006C73.2686 13.5811 73.0986 14.3281 73.0986 15.3418ZM85.0869 18.1279C85.5557 18.1279 85.9365 17.999 86.2295 17.7412C86.5225 17.4834 86.6748 17.1406 86.6865 16.7129H89.0684C89.0625 17.3574 88.8867 17.9492 88.541 18.4883C88.1953 19.0215 87.7207 19.4375 87.1172 19.7363C86.5195 20.0293 85.8574 20.1758 85.1309 20.1758C83.7715 20.1758 82.6992 19.7451 81.9141 18.8838C81.1289 18.0166 80.7363 16.8213 80.7363 15.2979V15.1309C80.7363 13.666 81.126 12.4971 81.9053 11.624C82.6846 10.751 83.7539 10.3145 85.1133 10.3145C86.3027 10.3145 87.2549 10.6543 87.9697 11.334C88.6904 12.0078 89.0566 12.9072 89.0684 14.0322H86.6865C86.6748 13.54 86.5225 13.1416 86.2295 12.8369C85.9365 12.5264 85.5498 12.3711 85.0693 12.3711C84.4775 12.3711 84.0293 12.5879 83.7246 13.0215C83.4258 13.4492 83.2764 14.1465 83.2764 15.1133V15.377C83.2764 16.3555 83.4258 17.0586 83.7246 17.4863C84.0234 17.9141 84.4775 18.1279 85.0869 18.1279ZM90.123 15.1572C90.123 14.2139 90.3047 13.373 90.668 12.6348C91.0312 11.8965 91.5527 11.3252 92.2324 10.9209C92.918 10.5166 93.7119 10.3145 94.6143 10.3145C95.8975 10.3145 96.9434 10.707 97.752 11.4922C98.5664 12.2773 99.0205 13.3438 99.1143 14.6914L99.1318 15.3418C99.1318 16.8008 98.7246 17.9727 97.9102 18.8574C97.0957 19.7363 96.0029 20.1758 94.6318 20.1758C93.2607 20.1758 92.165 19.7363 91.3447 18.8574C90.5303 17.9785 90.123 16.7832 90.123 15.2715V15.1572ZM92.6631 15.3418C92.6631 16.2441 92.833 16.9355 93.1729 17.416C93.5127 17.8906 93.999 18.1279 94.6318 18.1279C95.2471 18.1279 95.7275 17.8936 96.0732 17.4248C96.4189 16.9502 96.5918 16.1943 96.5918 15.1572C96.5918 14.2725 96.4189 13.5869 96.0732 13.1006C95.7275 12.6143 95.2412 12.3711 94.6143 12.3711C93.9932 12.3711 93.5127 12.6143 93.1729 13.1006C92.833 13.5811 92.6631 14.3281 92.6631 15.3418Z" fill="#080135"/>
<line x1="99.1803" y1="27.8316" x2="111.18" y2="12.8316" stroke="#080135" stroke-width="3"/>
<line x1="96.9971" y1="1.87935" x2="111.348" y2="14.648" stroke="#080135" stroke-width="3"/>
</svg>
