<svg width="27" height="34" viewBox="0 0 27 34" fill="none" xmlns="http://www.w3.org/2000/svg">
<path d="M26.9375 33.625H0.0625L0.0625 27.6875C0.0653452 25.4837 1.05727 23.3708 2.82067 21.8125C4.58407 20.2541 6.97493 19.3775 9.46875 19.375L17.5312 19.375C20.0251 19.3775 22.4159 20.2541 24.1793 21.8125C25.9427 23.3708 26.9347 25.4837 26.9375 27.6875L26.9375 33.625Z" fill="#077763"/>
<path d="M22.9062 8.6875C22.9062 10.3316 22.3546 11.9387 21.321 13.3057C20.2874 14.6727 18.8184 15.7381 17.0996 16.3672C15.3808 16.9964 13.4896 17.161 11.6649 16.8403C9.8403 16.5195 8.16427 15.7278 6.84878 14.5653C5.53329 13.4028 4.63743 11.9217 4.27449 10.3092C3.91155 8.69672 4.09782 7.02535 4.80976 5.50644C5.5217 3.98753 6.72732 2.6893 8.27417 1.77591C9.82102 0.86252 11.6396 0.375 13.5 0.375C15.9947 0.375 18.3872 1.25078 20.1512 2.80967C21.9152 4.36857 22.9062 6.48289 22.9062 8.6875V8.6875Z" fill="#077763"/>
</svg>
