<svg width="43" height="42" viewBox="0 0 43 42" fill="none" xmlns="http://www.w3.org/2000/svg">
<path d="M35.4749 28.6476C35.4749 28.6476 38.6999 28.3045 38.6999 24.5306C38.6999 20.7567 34.9374 20.242 34.9374 20.242H28.1291V32.5931H31.5333V29.6769L34.5791 32.5931H39.4166L35.4749 28.6476ZM34.0416 26.246H31.3541V23.5013H34.0416C34.0416 23.5013 34.7583 23.8444 34.7583 24.8737C34.9374 25.9029 34.0416 26.246 34.0416 26.246V26.246ZM38.1624 14.0665V14.4096C23.6499 10.4641 17.9166 22.6436 18.9916 32.0785H7.70409C8.95825 22.8152 21.1416 4.46012 38.1624 14.0665V14.0665ZM36.7291 11.8364C35.4749 11.3218 34.2208 10.8072 32.9666 10.4641L33.1458 8.23405L36.9083 9.60639L36.7291 11.8364ZM33.1458 14.9242C34.3999 14.9242 35.6541 15.0958 36.9083 15.4388L36.7291 17.4973L33.5041 17.1543L33.1458 14.9242ZM24.9041 9.94948L24.1874 7.89097L27.9499 7.54788L28.6666 9.77793C28.3083 9.77793 25.2624 9.94948 24.9041 9.94948V9.94948ZM27.2333 16.2966C27.9499 15.9535 29.2041 15.4388 30.8166 15.0958L31.5333 17.1543L28.3083 18.3551L27.2333 16.2966ZM21.1416 11.1503C20.0666 11.6649 18.9916 12.1795 17.9166 12.8657L16.4833 10.6356L19.7083 8.92022L21.1416 11.1503ZM25.6208 17.3258L27.0541 19.3843L25.0833 21.6144L23.1124 19.8989C23.6499 18.8697 24.5458 18.012 25.6208 17.3258V17.3258ZM20.7833 25.7314C20.9624 24.359 21.3208 23.1582 21.8583 21.7859L24.0083 23.5013L23.4708 26.7606L20.7833 25.7314V25.7314ZM14.1541 15.9535C13.2583 16.8112 12.3624 17.8404 11.6458 18.6981L9.31659 16.8112L12.0041 14.0665L14.1541 15.9535ZM8.59992 23.5013C7.88325 24.8737 7.34575 26.246 6.80825 27.4468L3.58325 26.246L5.19575 22.3005L8.59992 23.5013V23.5013ZM20.6041 27.9614L23.8291 28.9907L24.3666 32.4215L20.7833 31.5638C20.7833 31.2207 20.6041 30.02 20.6041 27.9614V27.9614Z" fill="#077763"/>
</svg>
