<svg width="24" height="27" viewBox="0 0 24 27" fill="none" xmlns="http://www.w3.org/2000/svg">
<g clip-path="url(#clip0_122_23)">
<path d="M23.2 25.6857V26.5714H24V25.6857H23.2ZM23.2 0.885714H24V0H23.2V0.885714ZM13.6 0.885714V0H13.2688L13.0336 0.258629L13.6 0.885714ZM0.8 15.0571L0.2336 14.4301L0 14.6905V15.0571H0.8ZM0.8 25.6857H0V26.5714H0.8V25.6857ZM7.2 18.6L6.8416 19.3918L6.872 19.4095L6.904 19.4219L7.2 18.6V18.6ZM7.2 7.97143V7.08571C6.98783 7.08571 6.78434 7.17903 6.63431 7.34513C6.48429 7.51124 6.4 7.73652 6.4 7.97143H7.2ZM16.8 7.97143L17.5424 7.64194L17.5296 7.60829L17.5152 7.57463L16.8 7.97143V7.97143ZM24 25.6857V0.885714H22.4V25.6857H24ZM23.2 0H13.6V1.77143H23.2V0ZM13.0336 0.258629L0.2336 14.4301L1.3664 15.6842L14.1664 1.5128L13.0336 0.258629V0.258629ZM0 15.0571V25.6857H1.6V15.0571H0ZM0.8 26.5714H23.2V24.8H0.8V26.5714ZM22.6336 0.258629L0.2336 25.0586L1.3664 26.3128L23.7664 1.5128L22.6336 0.258629V0.258629ZM8 18.6V7.97143H6.4V18.6H8ZM7.2 8.85714H16.8V7.08571H7.2V8.85714ZM6.9024 19.4219L22.9024 26.5077L23.4976 24.8638L7.4976 17.7781L6.9024 19.4219ZM16.0576 8.30091L22.4576 26.0152L23.9424 25.3562L17.5424 7.64194L16.0576 8.30091V8.30091ZM12.8848 1.28251L16.0848 8.36823L17.5152 7.57463L14.3152 0.488914L12.8848 1.28251V1.28251ZM0.4416 15.849L6.8416 19.3918L7.5584 17.8082L1.1584 14.2653L0.4416 15.849V15.849Z" fill="#077763"/>
</g>
<defs>
<clipPath id="clip0_122_23">
<rect width="24" height="26.5714" fill="white"/>
</clipPath>
</defs>
</svg>
