<svg width="39" height="35" viewBox="0 0 39 35" fill="none" xmlns="http://www.w3.org/2000/svg">
<path d="M28.6222 22.6258C30.9824 19.7351 32.0394 16.1512 31.582 12.591C31.1245 9.03084 29.1863 5.75697 26.155 3.4244C23.1237 1.09182 19.223 -0.127433 15.2332 0.0105538C11.2433 0.148541 7.45867 1.6336 4.63636 4.16861C1.81404 6.70363 0.162206 10.1017 0.0113255 13.6829C-0.139555 17.2641 1.22165 20.7644 3.8226 23.4835C6.42356 26.2026 10.0724 27.9399 14.0393 28.348C18.0061 28.756 21.9983 27.8047 25.2172 25.6842H25.2147C25.2879 25.7717 25.3659 25.8549 25.4536 25.9358L34.8376 34.3586C35.2947 34.7691 35.9147 34.9998 36.5612 35C37.2078 35.0002 37.828 34.7699 38.2853 34.3596C38.7427 33.9494 38.9998 33.3929 39 32.8126C39.0002 32.2323 38.7436 31.6756 38.2866 31.2651L28.9025 22.8424C28.8154 22.7632 28.7217 22.6901 28.6222 22.6236V22.6258ZM29.2511 14.2162C29.2511 15.7963 28.9043 17.361 28.2306 18.8208C27.5569 20.2806 26.5695 21.6071 25.3246 22.7244C24.0798 23.8417 22.602 24.728 20.9755 25.3327C19.349 25.9374 17.6058 26.2487 15.8453 26.2487C14.0849 26.2487 12.3416 25.9374 10.7152 25.3327C9.08873 24.728 7.61089 23.8417 6.36605 22.7244C5.12121 21.6071 4.13375 20.2806 3.46005 18.8208C2.78635 17.361 2.4396 15.7963 2.4396 14.2162C2.4396 11.025 3.85198 7.96444 6.36605 5.70791C8.88011 3.45138 12.2899 2.18367 15.8453 2.18367C19.4008 2.18367 22.8106 3.45138 25.3246 5.70791C27.8387 7.96444 29.2511 11.025 29.2511 14.2162Z" fill="#080135"/>
</svg>
