<svg width="50" height="40" viewBox="0 0 50 40" fill="none" xmlns="http://www.w3.org/2000/svg">
<path d="M10.9375 31.25C10.9375 31.5815 10.7729 31.8995 10.4799 32.1339C10.1868 32.3683 9.78942 32.5 9.37502 32.5C8.96062 32.5 8.56319 32.3683 8.27017 32.1339C7.97714 31.8995 7.81252 31.5815 7.81252 31.25V9.26751L4.23127 12.135C4.086 12.2512 3.91353 12.3434 3.72372 12.4063C3.53391 12.4692 3.33047 12.5016 3.12502 12.5016C2.91957 12.5016 2.71613 12.4692 2.52632 12.4063C2.33651 12.3434 2.16405 12.2512 2.01877 12.135C1.8735 12.0188 1.75826 11.8808 1.67964 11.729C1.60101 11.5771 1.56055 11.4144 1.56055 11.25C1.56055 11.0856 1.60101 10.9229 1.67964 10.771C1.75826 10.6192 1.8735 10.4812 2.01877 10.365L8.26877 5.36751L8.29065 5.35001C8.5844 5.12177 8.97876 4.99535 9.38825 4.99815C9.79773 5.00096 10.1893 5.13277 10.4781 5.36501L16.7281 10.365C16.8734 10.4811 16.9887 10.6189 17.0674 10.7706C17.1461 10.9223 17.1867 11.0849 17.1868 11.2491C17.187 11.4134 17.1467 11.576 17.0682 11.7278C16.9898 11.8796 16.8748 12.0175 16.7297 12.1338C16.5846 12.25 16.4124 12.3422 16.2228 12.4052C16.0331 12.4681 15.8299 12.5006 15.6246 12.5007C15.4193 12.5008 15.2159 12.4686 15.0262 12.4058C14.8365 12.3431 14.664 12.2511 14.5188 12.135L10.9375 9.26751V31.25ZM21.875 8.75001C21.875 8.41849 22.0396 8.10055 22.3327 7.86613C22.6257 7.63171 23.0231 7.50001 23.4375 7.50001H45.3125C45.7269 7.50001 46.1244 7.63171 46.4174 7.86613C46.7104 8.10055 46.875 8.41849 46.875 8.75001C46.875 9.08153 46.7104 9.39947 46.4174 9.63389C46.1244 9.86831 45.7269 10 45.3125 10H23.4375C23.0231 10 22.6257 9.86831 22.3327 9.63389C22.0396 9.39947 21.875 9.08153 21.875 8.75001ZM23.4375 15C23.0231 15 22.6257 15.1317 22.3327 15.3661C22.0396 15.6005 21.875 15.9185 21.875 16.25C21.875 16.5815 22.0396 16.8995 22.3327 17.1339C22.6257 17.3683 23.0231 17.5 23.4375 17.5H39.0625C39.4769 17.5 39.8744 17.3683 40.1674 17.1339C40.4604 16.8995 40.625 16.5815 40.625 16.25C40.625 15.9185 40.4604 15.6005 40.1674 15.3661C39.8744 15.1317 39.4769 15 39.0625 15H23.4375ZM23.4375 22.5C23.0231 22.5 22.6257 22.6317 22.3327 22.8661C22.0396 23.1005 21.875 23.4185 21.875 23.75C21.875 24.0815 22.0396 24.3995 22.3327 24.6339C22.6257 24.8683 23.0231 25 23.4375 25H32.8125C33.2269 25 33.6244 24.8683 33.9174 24.6339C34.2104 24.3995 34.375 24.0815 34.375 23.75C34.375 23.4185 34.2104 23.1005 33.9174 22.8661C33.6244 22.6317 33.2269 22.5 32.8125 22.5H23.4375ZM23.4375 30C23.0231 30 22.6257 30.1317 22.3327 30.3661C22.0396 30.6005 21.875 30.9185 21.875 31.25C21.875 31.5815 22.0396 31.8995 22.3327 32.1339C22.6257 32.3683 23.0231 32.5 23.4375 32.5H26.5625C26.9769 32.5 27.3743 32.3683 27.6674 32.1339C27.9604 31.8995 28.125 31.5815 28.125 31.25C28.125 30.9185 27.9604 30.6005 27.6674 30.3661C27.3743 30.1317 26.9769 30 26.5625 30H23.4375Z" fill="#077763"/>
</svg>
